<?xml version="1.0" encoding="UTF-8"?>
<svg width="176px" height="328px" viewBox="0 0 176 328" version="1.1" xmlns="http://www.w3.org/2000/svg" xmlns:xlink="http://www.w3.org/1999/xlink">
    <!-- Generator: Sketch 53.2 (72643) - https://sketchapp.com -->
    <title>Group 202</title>
    <desc>Created with Sketch.</desc>
    <defs>
        <polygon id="path-1" points="0 0.608896104 27.947135 0.608896104 27.947135 49.9392273 0 49.9392273"></polygon>
    </defs>
    <g id="final" stroke="none" stroke-width="1" fill="none" fill-rule="evenodd">
        <g id="Group-202" transform="translate(0.000000, -1.000000)">
            <path d="M19.9100092,314.785745 C47.587959,313.576972 159.552387,308.096634 173.324234,316.94637 C187.096723,325.796106 144.981427,324.577527 109.180664,327.412162 C73.3799001,330.247451 65.0592353,328.475804 63.7179593,328.207115 C62.3766833,327.938426 73.309239,319.361955 73.309239,319.361955 C73.309239,319.361955 73.0471506,318.698405 60.4604829,319.951632 C47.8738153,321.205514 22.169237,325.517611 13.0976375,321.417981 C12.040933,315.250557 19.9100092,314.785745 19.9100092,314.785745" id="Fill-1" fill="#CCDAE1"></path>
            <path d="M34,204.432462 C38.9651614,218.359949 50.7612666,236.292602 60.4274304,241.253762 C70.0935943,246.215571 78.2530266,239.501542 77.993997,234.811853 C77.7356086,230.122813 75.7742929,209.268278 71.5015869,205.786568 C67.2288808,202.304859 50.2111493,198.807563 49.2673583,199.008244 C48.3229261,199.209574 34,204.432462 34,204.432462" id="Fill-3" fill="#B3B3FC"></path>
            <path d="M71.2446526,233.719591 C62.1629368,227.047707 51.9295957,227.817664 45.2269708,233.719591 C38.5243459,239.621518 32.2104822,261.651299 23.2186276,267.626034 C14.226773,273.600769 12,275.639382 12,275.639382 C12,275.639382 16.6562116,290.555923 20.05118,291.766591 C23.4467858,292.977904 21.6909874,289.354275 26.1215901,283.684946 C30.5515554,278.014972 56.019873,258.045067 68.6272065,257.085682 C81.2345399,256.125652 71.2446526,233.719591 71.2446526,233.719591" id="Fill-5" fill="#B3B3FC"></path>
            <path d="M63.8679234,251.270092 C62.5049744,240.108954 55.1120279,232.783958 45.2175791,234.167348 C38.5194943,240.05587 32.2077271,261.88056 23.2216985,267.805537 C14.2273825,273.73691 12,275.759871 12,275.759871 C12,275.759871 16.6568487,290.566558 20.0533839,291.76831 C23.4499192,292.970702 21.6936401,289.37376 26.1248181,283.746183 C30.0020192,278.822132 49.9885381,263.788398 63.3738703,258.660324 C63.9061727,256.274088 64.1809299,253.83157 63.8679234,251.270092" id="Fill-7" fill="#B7ECFF"></path>
            <path d="M47.5426976,265.097051 C40.2559058,268.401257 33.0309637,271.490476 27.3662929,277.202788 C23.9154601,280.682598 21.2941789,286.018523 19,290.517744 C19.5094633,291.149145 20.0112751,291.595904 20.4875818,291.766343 C23.884854,292.979435 22.128194,289.348553 26.5603334,283.668521 C30.0844932,279.151869 46.9108101,266.210719 60,260 C55.8254615,261.64371 51.6324318,263.242873 47.5426976,265.097051" id="Fill-9" fill="#71CEFC"></path>
            <path d="M63.8673823,251.235878 C62.4988501,240.096852 55.0756186,232.786367 45.1406374,234.167016 C43.4187703,235.670858 41.7225072,238.432796 40,241.803036 C46.1462334,243.254537 52.4403298,248.450324 55.0058477,252.527804 C56.5248034,254.943142 57.6033707,257.857634 58.24347,261 C60.0223059,260.04446 61.7460933,259.229986 63.3713054,258.61147 C63.9057883,256.229961 64.1816711,253.792282 63.8673823,251.235878" id="Fill-11" fill="#92CDFA"></path>
            <path d="M83.7693359,279.205015 C85.7768137,266.762029 90.9124767,254.80585 94.1901756,242.697099 C95.2741491,238.693388 96.2556543,234.625029 97,230.519173 L87.5451986,208 C87.5451986,208 64.6960415,219.74607 66.7421866,231.299486 C68.7883316,242.853549 60.5728175,247.68412 63.7319366,261.723935 C67.2919068,277.542244 66.7769871,296.771431 64.465971,310.739486 C62.1549548,324.708835 78.4577366,321.629604 84.321634,317.621369 C81.9506835,312.616246 79.5107763,288.742677 83.7693359,279.205015" id="Fill-13" fill="#D7D7FF"></path>
            <path d="M83.4501856,278.472443 C85.1038012,268.126383 88.908513,258.118833 92,248.077881 C90.6554062,247.573649 89.3082743,247.087403 87.9516242,246.659609 C80.1188419,244.19305 72.7416606,243.383068 64.9786779,244.478246 C63.5274811,249.028534 62.0953206,253.817128 63.7210163,261.10504 C67.2255899,276.821005 66.7192257,295.927204 64.4431247,309.805455 C62.1676583,323.684989 78.2196587,320.625556 83.9933533,316.643091 C81.6588745,311.670148 79.2564998,287.948784 83.4501856,278.472443" id="Fill-15" fill="#B7ECFF"></path>
            <path d="M70.5693366,304.009388 C67.7833181,303.841623 67.3981542,305.999898 65.0056448,304.307349 C64.7758304,306.141106 64.513277,307.94701 64.2218364,309.71988 C61.9198404,323.716285 78.1589902,320.630443 84,316.615091 C83.1552073,314.821494 82.2995016,311.025079 81.7429398,306.450079 C78.5916576,306.906089 72.2043571,304.107845 70.5693366,304.009388" id="Fill-17" fill="#71CEFC"></path>
            <path d="M88.8801568,258 C89.9330166,254.706349 91.0004817,251.421814 92,248.134024 C90.654397,247.622199 89.3062538,247.12991 87.9485854,246.696226 C80.1092888,244.195708 72.727205,243.374574 64.9583954,244.48483 C64.0484146,247.376705 63.1466891,250.363001 63,254.008939 C70.8723176,254.290247 78.2626566,254.417227 86.1476745,257.008909 C87.0513051,257.305846 87.968271,257.6679 88.8801568,258" id="Fill-19" fill="#92CDFA"></path>
            <path d="M41.3367333,144 C40.5891998,144.674977 39.7708131,145.278698 38.9413759,145.862339 C37.5678642,146.830756 36.380261,148.025892 35.0392508,149.016981 C33.1613166,153.990561 30.7926103,158.763332 29.5029524,164.018692 C27.6835208,171.437605 26.863184,179.098783 27.018541,186.732756 C27.3266548,201.858839 32.8070507,214.342667 42.0446151,225.998645 C47.8805769,226.100993 58.5755067,220.39025 63.7874405,213.967608 L64,163.41497 C64,163.41497 51.1469734,148.573906 41.3367333,144" id="Fill-21" fill="#0074EF"></path>
            <path d="M27.7092195,186.70269 C27.5498774,186.409631 27.2521426,186.221422 27.0064637,186 C27.0090031,186.173882 26.9969413,186.347763 27.0007503,186.522296 C27.3010244,201.72945 32.6539028,214.280188 41.6754581,225.998638 C47.3749531,226.101534 57.8197951,220.360184 62.9092194,213.903118 L63,191.77261 C38.2518251,197.375897 30.1888617,191.252919 27.7092195,186.70269" id="Fill-23" fill="#0061D1"></path>
            <path d="M51.8371828,216.701015 C48.3701312,218.1487 42.8726131,220.515904 38,220.744988 C39.1852302,222.517845 40.4508687,224.270339 41.8095781,225.998652 C47.4932381,226.099831 57.9102213,220.489177 62.9867041,214.179816 L63,211 C59.3544041,213.244389 55.5467254,215.150879 51.8371828,216.701015" id="Fill-25" fill="#5EB2FC"></path>
            <path d="M110.641414,169.359293 C112.862647,185.378937 104.094721,227.309908 102.692548,230.479832 C101.290374,233.649111 68.412259,233.807543 64.7226325,231.077493 C63.5924071,230.240896 62.9237869,227.425833 62.4101065,223.82634 C61.5987616,218.140829 61.4579656,215.571142 60.2145891,210.68101 C59.6751925,208.558281 54.5718199,202.796774 52.7716885,201.819134 C41.3177094,195.597143 31.1604678,179.751388 43.9266141,164.14972 C56.6921176,148.548053 97.0253481,150.038342 97.0253481,150.038342 C97.0253481,150.038342 108.164947,153.851654 110.641414,169.359293" id="Fill-27" fill="#0074EF"></path>
            <path d="M44.0457629,174.28854 C49.4724345,177.119533 55.6117122,178.679284 61.5126025,180.154672 C68.6169343,181.931448 75.5864142,184.405669 82.8147331,185.631832 C90.2974173,186.900498 98.0037895,187.819476 105.464105,185.894581 C107.000522,185.497882 108.34968,184.920864 109.618311,184.214404 C110.076552,178.383691 110.166027,173.146096 109.643875,169.358129 C107.182029,153.851422 96.1075541,150.03834 96.1075541,150.03834 C96.1075541,150.03834 56.0130725,148.54814 43.3222919,164.14887 C41.364702,166.555472 39.9522719,168.96787 39,171.350644 C41.1065021,172.734585 43.4999641,174.003895 44.0457629,174.28854" id="Fill-29" fill="#0061D1"></path>
            <path d="M96.4369746,204.715354 C96.1402159,213.561035 95.6852283,222.760978 94.8349862,232 C96.2056681,231.855861 97.4289238,231.682252 98.4755223,231.482379 C99.4617524,224.728963 100.20206,217.905719 100.538217,210.946024 C101.517458,190.683213 101.659165,168.872665 93.4255414,150 C92.7182772,150.001281 91.9112461,150.007687 91,150.024984 C97.0254083,167.192319 97.0266792,187.152757 96.4369746,204.715354" id="Fill-31" fill="#92CDFA"></path>
            <path d="M101,186.909499 C100.479537,174.18944 98.5483287,161.549529 93.4678347,150 C92.7482382,150.000646 91.9271352,150.007756 91,150.025207 C95.1009892,161.614163 96.4425551,174.457027 96.7102218,186.999987 C98.1429495,187.000633 99.5711515,186.977365 101,186.909499" id="Fill-33" fill="#5EB2FC"></path>
            <path d="M83.7981186,229.846941 C77.5807683,230.226514 68.9649475,230.471669 63,227.132319 C63.435266,229.090355 63.9832119,230.533117 64.7397764,231.088716 C68.4350305,233.802697 101.363292,233.645235 102.767605,230.495352 C103.001335,229.970478 103.441752,228.361932 104,226 C97.278488,227.911309 90.4494472,229.440484 83.7981186,229.846941" id="Fill-35" fill="#92CDFA"></path>
            <path d="M146.774917,105 C146.569922,99.8517442 137.875255,99.4778901 136.228113,97.3403393 C134.580317,95.2027884 142.270247,95.1804317 146.112274,95.00282 C149.953648,94.8252083 150,103.096574 150,103.096574 L146.774917,105 Z" id="Fill-37" fill="#B3B3FC"></path>
            <path d="M13.0328719,79 C12.3983547,74.1724975 21.1310421,76.0300447 23.5644346,74.2342287 C25.9978272,72.4390363 17.5520295,71.0497731 15.1031294,67.5342139 C12.6548754,64.0192783 13.0328719,79 13.0328719,79" id="Fill-39" fill="#B3B3FC"></path>
            <path d="M18.5558601,124 C7.66817915,108.404927 7.81174582,91.3911241 0.774380223,74.0316666 C-0.845129833,69.4775416 -0.0175101731,59.6999089 4.14137606,58.3850037 C8.30091192,57.0700985 9.61315031,59.5580359 13.0827866,59.399396 C16.5517732,59.2407561 20.251376,57.8684568 18.869628,61.7299833 C17.4885295,65.5921547 15.7546858,70.4751671 13.7752847,73.0495181 C11.7965331,75.6238691 11.2313611,80.2689218 14.2066343,84.2445916 C17.1819075,88.2209063 25.2508744,95.6814941 26.5208873,102.170896 C27.7915498,108.660944 31.5067435,120.130735 18.5558601,124" id="Fill-41" fill="#D7D7FF"></path>
            <path d="M17.0219515,104.358124 C16.7415686,107.753786 19.192102,110.836975 21.8003922,113 C23.9725311,110.104038 25.1232279,108.123129 27.9263941,105.612487 C27.824979,105.14857 27.7282038,104.701907 27.642697,104.27697 C27.1057935,101.612967 29.1042675,102.958707 27.048789,100.278729 C26.7717203,100.404612 24.7871661,96.9955314 22.4996923,97.0000044 C19.1152121,97.0070334 17.295706,101.042337 17.0219515,104.358124" id="Fill-43" fill="#B3B3FC"></path>
            <g id="Group-7" transform="translate(36.000000, 0.022989)">
                <path d="M56,68.24191 C56.0927703,72.5424245 61.4043932,71.2730332 63.2019049,70.5126483 C65.0001142,69.7522635 64.8389868,72.6854741 65.8880585,73.4340539 C66.9371302,74.1826337 69.2096538,73.4153047 70.3654462,75.0228763 C71.5212386,76.6304479 75.478973,78.701889 77.2541641,74.5006759 C79.0300527,70.3001572 82.6969209,73.2736439 82.6969209,68.63981 C82.6969209,64.0052817 83.5723099,62.2032737 86.8555415,62.7338071 C90.1387731,63.263646 92.9853565,59.6596301 90.9604529,57.1152921 C88.9348518,54.5709541 88.4982036,53.3154511 90.9604529,52.8300547 C93.4220047,52.3446584 90.7958379,49.0579903 92.5473133,46.7261434 C94.2980912,44.3936021 97.0574845,40.5937611 92.5473133,39.3556185 C88.0357471,38.1181702 89.1936321,37.5813871 88.8260385,34.1461142 C88.4577474,30.7115356 87.0940937,25.8041021 83.3086469,25.9818724 C79.5232001,26.1596427 71.0957507,25.9770115 71.0957507,25.9770115 L59.4945805,40.6444534 L56,68.24191 Z" id="Fill-45" fill="#113255"></path>
                <path d="M58.1672552,75.9770115 C54.8123945,71.9293779 55.8781444,68.5496685 60.2905676,63.8307135 C64.7029907,59.1117584 47.0901423,46.9770115 47.0901423,46.9770115 L33,62.4853526 L39.4149687,75.9770115 L58.1672552,75.9770115 Z" id="Fill-47" fill="#B3B3FC"></path>
                <path d="M53.4783736,66.7034917 C74.6711365,70.087171 74.6991051,41.1613966 71.4073708,30.4945239 C68.1156366,19.8269485 64.7022234,15.1069627 58.0732143,16.1082996 C51.442782,17.1096364 37.7030291,18.4869138 36.7573493,38.1089002 C35.5142322,46.7168838 33.3161431,63.4843493 53.4783736,66.7034917 Z" id="Fill-49" fill="#D7D7FF"></path>
                <path d="M51.8044669,36.6398636 C52.5840888,35.8714438 53.4048535,35.106598 54.4006495,34.6412572 C55.5875157,34.0865654 56.9110598,34.1830646 58.1383714,33.7227275 C59.668327,33.1487358 59.2938575,31.7984613 59.5253731,30.4567646 C59.5748839,30.1679817 59.7973342,30.0228755 60.0448885,29.9849906 C60.4221474,29.6197231 61.2457014,29.7533924 61.3642486,30.3331026 C61.9813911,33.3567452 65.8292921,33.6076432 68.349465,33.3081382 C68.3864239,33.2445202 68.4129226,33.1801874 68.4547628,33.1172842 C68.7134745,32.7298576 69.1806898,32.7727462 69.4470722,33.1172842 C70.6973959,34.7370417 70.2671296,36.3022317 72.5,36.9770115 C72.2419856,34.8733282 72.357056,33.3302973 71.8849595,31.7448507 C68.6590823,20.8933333 65.3139607,16.0919604 58.8175769,17.1105634 C52.4376482,18.1105813 39.3500428,19.4923074 38,38.4354641 C40.4162698,40.5434362 43.2711642,41.5834835 46.6741647,40.6084839 C48.8379988,39.9880295 50.2521966,38.1695551 51.8044669,36.6398636 Z" id="Fill-51" fill="#B3B3FC"></path>
                <path d="M38.8204376,39.4064305 C45.8070032,41.8892577 46.9651926,35.0518274 46.0788952,31.8482905 C52.283683,33.4869565 56.3867808,30.5723932 56.8839548,25.2915576 C62.0350728,26.5384886 67.3479135,26.4646935 66.8620389,20.7183277 C66.3761644,14.971962 69.0986156,10.6732225 62.2264565,9.41042896 C55.3535912,8.14763543 55.916443,-2.53059076 49.5569945,3.37095168 C43.197546,9.27111476 39.0774991,-4.88306958 33.1594338,3.98407207 C27.2413685,12.8512137 22.8458985,2.11160652 19.3925167,10.9559889 C15.9391349,19.8003713 7.03237599,14.3809112 9.04790802,24.3556696 C11.06344,34.3297384 -1.28328262,27.4005814 3.6439658,42.0871942 C6.40949608,50.3336291 -8.49301159,55.1537623 7.60087749,61.3773826 C9.70115508,64.0878024 2.37419474,68.8769003 19.6834765,68.9762134 C36.9927582,69.0748368 42.6805981,60.0201037 38.8395053,49.2804965 C36.1057546,43.8058624 38.8204376,39.4064305 38.8204376,39.4064305" id="Fill-53" fill="#113255"></path>
                <path d="M35.5399657,49.9007508 C34.8792656,49.4593401 34.3405091,48.7535026 33.9457426,47.9770115 C33.5089502,49.6908883 32.7387076,51.3194211 31.4372868,52.9164745 C29.6584259,55.0990441 27.7025056,57.3984373 24.997011,58.3211326 C22.4279279,59.1969586 16.093061,60.1098604 16.0062537,56.1917281 C12.9301057,57.7684947 9.84293452,58.8387933 6.29692472,58.0664995 C3.56249439,57.4711896 1.6568672,55.3732644 0.815663011,52.8052474 C-0.735845456,56.039228 -0.819208034,58.9584149 7.41439662,62.2693452 C9.46332477,65.0185435 2.31481151,69.8761601 19.2015895,69.9761946 C35.8913287,70.0755295 41.5000456,61.1025098 38.0091515,50.3757395 C37.1727699,50.5240423 36.3232984,50.4240079 35.5399657,49.9007508" id="Fill-55" fill="#113255"></path>
                <path d="M41.664293,40.2152532 C35.5682849,36.7888989 30.8242871,41.1318663 32.2574906,45.2443123 C33.6899691,49.3567583 35.5682849,50.9150005 40.4623449,49.421058 C45.35713,47.9264315 41.664293,40.2152532 41.664293,40.2152532" id="Fill-59" fill="#D7D7FF"></path>
                <path d="M64.3553239,22.8071168 C63.2438531,27.1860702 60.967721,31.2445953 68.7715037,30.0699248 C68.8799567,33.9143646 68.3432178,34.3418356 73.1641968,34.3418356 C77.9844849,34.3418356 79.8703242,36.3287708 80.477523,33.2742077 C81.084031,30.218945 86.1136266,16.0781228 73.7575799,15.0097953 C69.9299478,14.5872217 71.7156235,9.59119903 66.2328738,8.40253601 C60.7508149,7.21317337 58.9837904,8.7089718 58.0788639,10.5244989 C57.1739373,12.340026 64.3553239,22.8071168 64.3553239,22.8071168" id="Fill-93" fill="#113255"></path>
                <path d="M67,45.4770115 C67,46.3054504 67.4479705,46.9770115 68,46.9770115 C68.5520295,46.9770115 69,46.3054504 69,45.4770115 C69,44.6485725 68.5520295,43.9770115 68,43.9770115 C67.4479705,43.9770115 67,44.6485725 67,45.4770115" id="Fill-120" fill="#003254"></path>
                <path d="M55,44.4770115 C55,45.3054533 55.4475276,45.9770115 56.0003557,45.9770115 C56.5524724,45.9770115 57,45.3054533 57,44.4770115 C57,43.6485697 56.5524724,42.9770115 56.0003557,42.9770115 C55.4475276,42.9770115 55,43.6485697 55,44.4770115" id="Fill-122" fill="#003254"></path>
                <path d="M64.1342219,54.9770115 C65.028485,54.9770115 66.1963048,54.5985329 66.7798431,53.1792382 C67.0273822,52.5778952 67.0652936,52.0758637 66.8980374,51.6418645 C66.6490116,51.0014224 66.0424291,50.7410229 65.5079527,50.5119026 C65.1957412,50.3781839 64.8738659,50.2389914 64.7378309,50.0653917 C64.4040619,49.6360844 64.5289465,48.4115028 64.7244504,47.6787871 C64.8025033,47.3855444 64.641194,47.080572 64.3616903,46.997682 C64.0844167,46.9155741 63.7930193,47.0852638 63.7149664,47.3792885 C63.6510374,47.6154466 63.1158176,49.7228842 63.9260809,50.7644823 C64.2293721,51.1554726 64.6984328,51.3564416 65.1117414,51.5339512 C65.471528,51.6880013 65.8439518,51.8483073 65.9264649,52.0602241 C65.9799868,52.1994166 65.9428188,52.4355747 65.8164474,52.7421111 C65.2083783,54.2216183 63.7186832,53.832974 63.6569843,53.8149884 C63.3767372,53.7399183 63.0897999,53.9158639 63.0169506,54.2106706 C62.9441012,54.5054772 63.1128441,54.8081037 63.3930912,54.8839558 C63.5937986,54.9379125 63.8502581,54.9770115 64.1342219,54.9770115" id="Fill-124" fill="#8080F1"></path>
                <path d="M57.3934965,58.9770115 C58.1084536,58.9770115 58.5904471,58.8370065 58.6049069,58.8331602 C58.9037429,58.7408493 59.068424,58.4346845 58.9728286,58.150059 C58.8780365,57.8654335 58.5639374,57.700043 58.2626915,57.7977388 C58.12211,57.8392787 54.7826983,58.7693118 53.0997376,54.3345388 C52.9920924,54.052221 52.6683534,53.9083698 52.3727308,54.0091426 C52.079518,54.1114539 51.9268868,54.4237727 52.034532,54.7053212 C53.4266899,58.3739131 55.9105631,58.9770115 57.3934965,58.9770115" id="Fill-126" fill="#3333D1"></path>
                <path d="M50.5178839,41.9770115 C50.4523217,41.9770115 50.3845981,41.9641981 50.3211972,41.9378595 C50.0560664,41.8289459 49.9307056,41.5306791 50.0387753,41.2694287 C51.0056382,38.9544799 52.347863,37.5571107 54.0294264,37.1193206 C56.4948548,36.4864825 58.7081207,38.1650339 58.8017811,38.2383549 C59.0265659,38.4120472 59.0661914,38.7338052 58.8896777,38.9559036 C58.7146049,39.178002 58.3889551,39.2192895 58.1634498,39.0448853 C58.1447177,39.0292245 56.2513379,37.5976864 54.2866321,38.1116449 C52.9386436,38.4654363 51.8312901,39.6585034 50.9969926,41.6602365 C50.9148597,41.8581319 50.7210548,41.9770115 50.5178839,41.9770115" id="Fill-128" fill="#113255"></path>
                <path d="M70.5532848,39.9770115 C70.3762054,39.9770115 70.2090673,39.8825643 70.1388569,39.7258931 C69.8760338,39.1403205 69.150319,38.8614236 68.559433,38.7947549 C67.8225342,38.7114192 67.1309926,38.915314 66.8072791,39.3125478 C66.6612662,39.4908863 66.3810459,39.5269984 66.1834626,39.3997725 C65.9840152,39.2692132 65.9405221,39.0192059 66.0859136,38.8403118 C66.6053464,38.2036267 67.5976123,37.880284 68.67003,38.0025097 C69.7461756,38.1219576 70.6272232,38.6686402 70.9677127,39.4286622 C71.0596697,39.632557 70.9484514,39.8658972 70.7198016,39.9475662 C70.6651244,39.9670112 70.6085833,39.9770115 70.5532848,39.9770115" id="Fill-130" fill="#113255"></path>
                <path d="M21.4460026,48.9770115 C21.356641,48.9770115 21.2658497,48.9539907 21.1829222,48.9051587 C18.3047649,47.2204545 17.2560176,42.6448956 18.5428241,40.3295609 C18.9288661,39.6326584 20.1205919,38.1495606 22.8057282,39.4219832 C23.3511911,39.6814904 23.764399,39.7338104 24.0339135,39.5803384 C24.795274,39.1450359 24.9168057,37.0850229 25.0247545,35.2663795 C25.1641586,32.9259312 25.2956988,30.7166318 26.5825053,29.9332269 C27.1722916,29.5704748 27.9222139,29.5739628 28.8086806,29.9332269 C33.1809632,31.7190831 36.5345239,32.1801967 37.777722,31.1770478 C38.3739424,30.6943086 38.536223,29.8090541 38.2609894,28.5491883 C37.5589649,25.3297639 40.770977,22.0154659 44.3082651,20.405405 C47.4623709,18.969744 50.2633197,19.130192 51.6194708,20.823965 C52.4466014,21.8571107 53.4588892,22.3238052 54.6134406,22.2226532 C56.6551737,22.0398819 58.7490938,20.1214817 59.4160885,18.8671968 C59.7149136,18.3063263 60.3726147,18.0077535 61.3727493,17.9819423 C64.2852214,17.8493983 70.6020116,20.4144738 71.9288521,22.6077284 C72.0725455,22.8463076 71.9917627,23.1532517 71.7479843,23.2948645 C71.5034911,23.4357797 71.1889384,23.3555557 71.0431003,23.1169765 C69.9936381,21.3813475 64.2001492,18.9020768 61.4006301,18.983696 C60.8272863,18.9997408 60.436955,19.1253088 60.3282914,19.3304032 C59.5354756,20.820477 57.1420155,23.0018725 54.7078065,23.2230117 C53.1993833,23.3639269 51.8503811,22.7437604 50.8087827,21.4406435 C49.5598655,19.8780193 46.8554271,20.3516897 44.7429197,21.3150755 C41.6517245,22.7214372 38.682061,25.6625192 39.2668431,28.3399083 C39.6285787,29.9960109 39.3483409,31.2084398 38.4339933,31.9485935 C36.3958348,33.6005105 31.8576971,32.2660015 28.4126301,30.8582446 C27.8442906,30.6280365 27.4232189,30.6001325 27.1265385,30.7829038 C26.2908292,31.2914542 26.1635783,33.4351793 26.0506253,35.3235827 C25.9162255,37.594271 25.7896895,39.7386936 24.5536403,40.4460601 C23.9681434,40.7795129 23.2296594,40.7390521 22.3553459,40.3246777 C20.9691693,39.6619576 19.9876219,39.8314744 19.4464483,40.8074169 C18.410569,42.6727996 19.3585165,46.66656 21.7112277,48.0450178 C21.9550061,48.1873282 22.0336442,48.496365 21.8878062,48.7328515 C21.7912957,48.8898115 21.6211513,48.9770115 21.4460026,48.9770115" id="Fill-132" fill="#194C80"></path>
                <path d="M21.7313208,24.9770115 C21.5145549,24.9770115 21.314571,24.8386688 21.2495412,24.6260435 C20.551695,22.3471367 21.346037,19.9557838 23.2752531,18.5362375 C25.1827927,17.131684 27.6119688,17.0962464 29.772635,18.4353768 C31.1193803,19.2715666 32.3605397,19.4433024 33.4562561,18.9376358 C35.2421271,18.1205278 36.3210617,15.7175896 36.5685943,13.8312217 C36.7692776,12.2944589 38.1034365,10.9934921 40.1375393,10.3522088 C41.9912371,9.76680778 44.5868334,9.75658541 45.9007142,11.1216124 C47.5663151,12.8491928 48.2494772,12.6297526 51.1247715,11.7070134 L51.454815,11.6020638 C54.3426956,10.6704652 56.8243151,11.7976518 58.1563763,12.3980456 C58.3647512,12.4920914 58.5388632,12.5718259 58.6780129,12.6249822 C58.9374326,12.7217539 59.0660937,13.0038913 58.9661017,13.2580876 C58.8654104,13.5095578 58.5766224,13.6424486 58.3165033,13.5368175 C58.161271,13.4788907 57.9654825,13.3923413 57.7347317,13.2867102 C56.5250384,12.7421987 54.2783651,11.7274582 51.7687759,12.5309364 L51.4394316,12.638612 C48.4921151,13.5845219 47.2719331,13.9756979 45.1672065,11.7921998 C44.3120303,10.9021722 42.3275738,10.6875025 40.4466055,11.2851703 C38.793591,11.8058297 37.7160549,12.8048959 37.5657173,13.9538902 C37.2755307,16.1721442 36.0245819,18.8456345 33.8834946,19.824256 C32.9003566,20.2754032 31.29559,20.5411848 29.2335173,19.2627072 C27.4392554,18.1498319 25.438017,18.1716396 23.8814983,19.3172265 C22.2900173,20.48871 21.6362235,22.4629902 22.2131004,24.3473136 C22.2921151,24.6055988 22.1410782,24.8781953 21.8753652,24.9565668 C21.8271173,24.9701966 21.7781702,24.9770115 21.7313208,24.9770115" id="Fill-134" fill="#194C80"></path>
                <path d="M78.5099372,60.9770115 C78.3477958,60.9770115 78.1877785,60.9002895 78.0893608,60.7594001 C77.9300515,60.5292342 77.989527,60.2174641 78.2217644,60.0626253 C79.8821209,58.9410897 82.9550193,56.211183 82.9904213,55.1133615 C82.9932535,55.0143204 82.9642238,54.9843291 82.9245735,54.9550353 C82.0019959,54.2422185 81.4560962,53.0662802 81.5007028,51.8854595 C81.538229,50.8699398 82.0168648,49.3752565 84.0793886,48.0110006 C85.1754362,47.2884193 85.7829355,46.4835362 85.9387045,45.5510157 C86.2028039,43.9698459 85.2448242,41.8830086 82.8346523,38.7834415 C82.6640144,38.5637377 82.7064968,38.2484802 82.9295298,38.0810869 C83.1497306,37.9122986 83.4711813,37.952752 83.6432352,38.1738507 C86.273608,41.5551966 87.2599092,43.8108222 86.9427068,45.7149217 C86.738791,46.9348008 85.9882674,47.9572953 84.6472375,48.8437826 C83.2962951,49.7358497 82.5599323,50.8001925 82.5181579,51.9224255 C82.4792157,52.956777 83.0272395,53.7595677 83.552606,54.1641016 C83.863436,54.4047296 84.0206212,54.7423062 84.0071684,55.1447478 C83.9391964,57.2525092 78.8476728,60.8549538 78.7966938,60.8884325 C78.7088967,60.9477177 78.6090629,60.9770115 78.5099372,60.9770115" id="Fill-136" fill="#194C80"></path>
                <path d="M36.9649823,46.9770115 C36.9455121,46.9770115 36.9247439,46.9758133 36.9059227,46.972818 C36.651512,46.9428641 36.4704391,46.7301916 36.5022404,46.4953533 C36.5067835,46.4576114 36.6352868,45.5542028 37.4510885,45.1336505 C37.8508767,44.9299642 38.3265987,44.8760472 38.8717644,44.9856784 C38.5790624,44.1817166 38.0825721,43.5281232 37.4712077,43.1692758 C36.9098167,42.8367879 36.2776841,42.7547143 35.5858428,42.9236541 C35.3372731,42.9907508 35.0815644,42.8487695 35.0160147,42.6187238 C34.949167,42.3892771 35.0977896,42.1532406 35.3463592,42.0915357 C36.2815781,41.8596927 37.1927837,41.9813054 37.974188,42.4431941 C38.9944267,43.0452668 39.7304005,44.1865092 39.9932483,45.5751705 C40.0224536,45.7321288 39.9556059,45.8920824 39.8180164,45.989732 C39.679129,46.0897779 39.496109,46.1077503 39.3377514,46.0388564 C38.9074598,45.857935 38.3097245,45.6794099 37.9099363,45.8830962 C37.507552,46.0867825 37.4283732,46.5971965 37.4277242,46.6025881 C37.3952739,46.818256 37.1947307,46.9770115 36.9649823,46.9770115" id="Fill-138" fill="#8181F5"></path>
            </g>
            <path d="M55,69.9897554 C62.8040335,62.8811122 67.4815865,60.3087962 77.8946494,66.4809445 C88.3013082,72.6486058 100.83861,74.0286697 104.283374,73.5004892 C107.727498,72.9716677 97.6384826,84 97.6384826,84 L55,69.9897554 Z" id="Fill-57" fill="#92CDFA"></path>
            <path d="M140.177781,152 C146.031845,149.061479 156.863898,108.517403 158.484446,101.611847 C160.104994,94.7069376 157.538437,85.8797166 155.840327,84.4133707 C154.14158,82.9483201 153.627251,85.9645626 150.538101,84.4852631 C147.449586,83.0059636 145.559476,86.5571891 144.263801,85.6005668 C142.968761,84.6445922 139.53185,88.3421932 141.123789,91.6058492 C142.715729,94.8695051 147.098648,97.9880809 147.574831,100.761444 C148.051014,103.534806 141.819945,117.03309 139.688247,119.518236 C132.270853,128.162811 129.36798,135.814495 131.892576,141.666277 C134.417173,147.518707 134.576113,151.594553 140.177781,152" id="Fill-61" fill="#D7D7FF"></path>
            <path d="M26.9172991,91.1825644 C19.7491093,93.1207415 11.8897311,118.813597 18.4720808,124.770279 C22.5023006,127.632757 49,102.798645 49,102.798645 L39.5944408,85 L26.9172991,91.1825644 Z" id="Fill-63" fill="#D7D7FF"></path>
            <path d="M16.4752764,113 C16.4580964,113 16.4415772,112.998717 16.4243973,112.996793 C16.1633938,112.969859 15.9744141,112.743477 16.0028271,112.490801 C17.0151241,103.20338 22.2153702,91.3648353 27.4017401,90.0180887 C27.6567967,89.9456209 27.9144963,90.0982521 27.983877,90.3445144 C28.0512753,90.589494 27.9012809,90.8428107 27.6475459,90.9082241 C23.3175316,92.0330782 18.0175095,102.771138 16.9464042,112.586356 C16.9206342,112.82364 16.7144745,113 16.4752764,113" id="Fill-65" fill="#8080F1"></path>
            <path d="M29.9409204,110.786019 C31.3282144,112.488052 32.8948012,113.816033 34.5364112,115 C41.9058542,109.066144 49,102.474033 49,102.474033 L39.6901257,85 L27.143444,91.0702224 C25.7504279,91.4436373 24.3319802,92.7251004 23,94.5736953 C23.9142662,100.490983 26.0492493,106.011279 29.9409204,110.786019" id="Fill-67" fill="#B3B3FC"></path>
            <path d="M24,90.5134329 C25.3009467,98.245473 30.3544045,111.694138 39.4546882,113.991264 C42.9490399,114.539355 58.431003,89.1387344 59.6558338,82.4153602 C60.9212597,75.4715998 65.2199021,68.3956078 57.5436191,68.0314916 C49.8667017,67.6667365 43.0530649,70.5330339 39.4546882,73.3923045 C35.8563116,76.2515751 24,90.5134329 24,90.5134329" id="Fill-69" fill="#0074EF"></path>
            <path d="M49.7212698,76.1621497 C40.8298413,77.1262943 33.3606349,81.8558922 26.6374603,87.4483135 C25.0603175,89.3001339 24,90.5707912 24,90.5707912 C25.3022222,98.2839483 30.3606349,111.699769 39.4698413,113.991286 C42.967619,114.538038 58.4647619,89.1988127 59.6907937,82.4924953 C60.0133333,80.7292512 60.5320635,78.9583603 61,77.2907023 C57.464127,76.1799924 53.7034921,75.7301007 49.7212698,76.1621497" id="Fill-71" fill="#0061D1"></path>
            <path d="M31.9046775,104.548197 C28.9916664,99.3769213 26.5699848,93.1190347 26.8774425,87 C25.1773822,89.0967901 24,90.5814856 24,90.5814856 C25.2358594,98.291584 30.039434,111.700977 38.6886414,113.991395 C39.2101138,114.076745 40.013121,113.523248 41,112.505426 C37.380439,110.99589 34.2950105,108.792732 31.9046775,104.548197" id="Fill-73" fill="#92CDFA"></path>
            <path d="M117,133.956147 C116.637748,121.957359 115.399515,110.068463 112.825718,101.931369 C105.685091,79.3572043 93.4961362,72.3726715 81.9994568,70.7876577 C65.5601593,68.5206743 57.9670397,65.4437306 53.9854861,67.9130425 C34.798356,79.8135745 34.819627,114.30831 43.3319138,125.170051 C42.9264747,124.894031 42.5178128,124.906313 42.156205,125.093127 C42.01891,130.217272 43.717371,132.992339 40.5479848,137.548931 C38.634235,142.075787 35.6189028,146.101024 33.291979,150.433956 C30.825182,155.027393 29.268528,159.699693 28,164.608582 C32.6312873,168.746941 40.2282745,173.114133 52.8445845,176.979705 C82.9340938,186.1989 99.4204454,185.725077 111.980033,179.116759 C113.023603,177.69141 112.489249,175.688811 112.239153,174.001017 C112.217237,173.853634 112.233996,173.703665 112.248821,173.554989 C113.519283,155.676395 115.111389,150.468862 115.686996,141.298148 C116.095014,134.799721 115.886171,137.521135 117,133.956147" id="Fill-75" fill="#0074EF"></path>
            <path d="M104.720749,85 C98.6119413,86.4768982 92.8132121,88.7384386 88,92.578887 C90.0701578,103.506779 89.6101227,114.262729 95.3243427,124.612564 C100.044785,133.162791 107.180412,140.473501 115.293295,146 C115.459772,144.473059 115.600197,142.915965 115.705675,141.222857 C116.107888,134.773136 115.902651,137.474153 117,133.935885 C116.643536,122.02703 115.422283,110.227243 112.885101,102.151137 C110.618602,94.9360216 107.831069,89.3440823 104.720749,85" id="Fill-77" fill="#0061D1"></path>
            <path d="M100.240385,112.697226 C105.731342,124.628883 101.643087,173.597594 99.088799,179.456837 C98.4280324,182.010335 101.641818,183.593879 102.553068,179.456837 C103.464317,175.319795 108.628062,133.061062 104.283617,113.920521 C101.953812,108.161058 100.240385,112.697226 100.240385,112.697226" id="Fill-79" fill="#92CDFA"></path>
            <path d="M111.764756,174.873859 C109.055689,176.016919 106.337022,177.128637 103.515318,177.973619 C97.429037,179.79791 90.8685258,179.879146 84.5979289,179.215825 C73.2669514,178.016475 61.4502233,174.87066 50.7016343,171.071759 C46.2153224,169.486059 36.15216,165.440252 29.3913327,160 C28.8799827,161.578664 28.4217517,163.184834 28,164.812112 C32.5976697,168.906533 40.1412017,173.228031 52.6676757,177.053158 C82.5429293,186.175893 98.9118879,185.707027 111.382043,179.167851 C112.263306,177.968501 112.016911,176.357854 111.764756,174.873859" id="Fill-81" fill="#92CDFA"></path>
            <path d="M98,116.40445 C105.171271,127.537892 130.175933,151.223585 138.944282,151.987409 C147.71328,152.751882 142.550692,118.499623 120.638259,105.008626 C98.7258266,91.5176287 98,116.40445 98,116.40445" id="Fill-83" fill="#D7D7FF"></path>
            <path d="M123.152494,114.100443 C123.788123,111.736001 123.997384,109.46432 124,107.219883 C122.973314,106.440817 121.915239,105.694834 120.802887,105.013718 C98.7311049,91.5055828 98,116.424019 98,116.424019 C100.183506,119.793918 104.014286,124.313928 108.533011,129 C115.785206,127.912162 121.295304,121.011492 123.152494,114.100443" id="Fill-85" fill="#B3B3FC"></path>
            <path d="M87.8921158,110.143984 C84.8896173,108.7202 79.389618,96.6331991 81.8538785,89.3233247 C82.7226023,86.7447731 75.5708133,73.1301239 78.8801458,72.4179095 C91.5734844,69.686464 105.122762,80.734819 114.434535,94.168189 C117.632,97.8479634 120.045122,100.714239 121.264787,102.174795 C121.831791,102.854108 122.095796,103.748892 121.968587,104.627548 C120.061103,117.835125 114.390427,122.755469 102.384269,123.974104 C101.475912,124.066356 100.549018,123.911527 99.7231231,123.519293 C92.9906739,120.318844 87.8921158,110.143984 87.8921158,110.143984" id="Fill-89" fill="#0074EF"></path>
            <path d="M121.255512,102.900792 C121.043305,102.646689 120.783221,102.335756 120.50114,102 C119.332705,106.628724 117.138815,111.167304 115.406217,113.562665 C111.173711,119.414219 102.384565,121.846161 95,121.300721 C96.3664098,122.60651 97.8622145,123.756179 99.4537713,124.512609 C100.289015,124.91042 101.227775,125.067193 102.146478,124.973783 C114.29795,123.739195 120.03726,118.757732 121.968478,105.384338 C122.096579,104.494651 121.829379,103.588633 121.255512,102.900792" id="Fill-91" fill="#92CDFA"></path>
            <path d="M62.8380655,308.05044 C62.1046403,314.406104 57.805918,321.147115 59.3211048,324.235605 C60.8362916,327.324732 60.8569152,327.4748 67.5273464,327.947898 C74.1977776,328.421632 78.7091803,325.49402 83.5080239,326.05805 C88.3075119,326.622079 102.910923,326.93557 92.106113,317.687904 C81.300659,308.439601 85.9538487,303.704806 80.1238274,302 C81.209142,306.897582 81.6725275,306.8607 81.6725275,306.8607 C79.1893225,308.818588 76.705473,309.860803 75.5473315,309.197575 C74.3898345,308.534984 71.5908313,305.254456 67.2611736,304.934606 C64.8688412,304.757195 63.2872723,305.550143 62.8380655,308.05044" id="Fill-95" fill="#FF5151"></path>
            <path d="M93.6747081,324.373982 C91.4718494,323.965258 88.8576712,324.480868 86.6184069,324.315496 C83.5846062,324.09164 80.5501668,323.284278 77.5150886,323.192853 C73.5877538,323.073866 69.8564982,324.621366 65.9342729,324.194493 C63.6688221,323.94778 60.4280842,323.012692 59.1142888,321 C58.929706,322.194574 58.9495055,323.223776 59.3161164,324.020382 C60.8170494,327.285461 60.8381263,327.44411 67.4486185,327.94493 C74.0591106,328.44575 78.5299748,325.350077 83.285697,325.947027 C86.2275257,326.316088 92.8827264,326.580279 95,324.41566 C94.6244474,324.473473 94.1882188,324.46944 93.6747081,324.373982" id="Fill-97" fill="#FFDFCC"></path>
            <g id="Group-101" transform="translate(0.000000, 272.000000)">
                <mask id="mask-2" fill="white">
                    <use xlink:href="#path-1"></use>
                </mask>
                <g id="Clip-100"></g>
                <path d="M14.5008093,0.608896104 C20.5540186,1.04461039 24.8080651,3.94396104 23.7284372,14.6062987 C24.6263907,9.5537013 28.1472279,7.86863636 27.9382047,10.3556494 C27.7298326,12.842013 25.4839721,21.7361688 23.0824837,26.2485065 C20.6816465,30.7621429 22.1330884,37.2426623 18.8987628,40.7303247 C22.6872279,39.9192857 25.299693,46.9335714 24.2845302,48.7452597 C23.2693674,50.5569481 15.875414,49.8264286 13.2688093,49.6114935 C10.6622047,49.3965584 4.65457674,42.7348701 4.74899535,30.1095455 C4.84406512,17.4835714 -2.3324,14.6062987 0.785367442,5.76279221 C2.63922791,0.503701299 3.01755349,6.16928571 14.5008093,0.608896104" id="Fill-99" fill="#FF5151" mask="url(#mask-2)"></path>
            </g>
            <path d="M13.6866518,312.315126 C12.8906843,303.798887 11.2030802,296.110269 11.1067733,291.759018 C11.0340647,288.477977 10.6807266,282.342189 9.87327883,279.189804 C8.91020923,275.427425 7.46432922,276.642293 4.82896258,275.038257 C2.39195002,275.049779 1.81410825,274.469868 0.769400955,277.453912 C-2.28435884,286.171136 4.74413592,289.007962 4.65165573,301.453001 C4.55853774,313.89868 10.4434671,320.464601 12.9959204,320.676467 C15.5490116,320.888973 22.7911675,321.60906 23.785489,319.822602 C24.0304021,319.382869 24.0578272,318.630777 23.9073078,317.761551 C19.6264315,319.938457 14.3110526,318.999462 13.6866518,312.315126" id="Fill-102" fill="#FFDFCC"></path>
            <path d="M11.4699262,312.595761 C11.3466288,304.759434 8.37284074,297.738421 8.37345112,289.734634 C8.37345112,286.900108 8.41922988,283.922691 7.79785956,281.149588 C6.88289481,277.063965 4.72091674,275.808343 1.71416801,276.023001 C1.38089866,276.375377 1.08547309,276.976033 0.73633377,278.028635 C-2.18618205,286.834158 4.54024324,289.69972 4.45173765,302.270818 C4.36262167,314.842563 9.99462949,321.474992 12.4373839,321.689004 C13.442075,321.776936 15.2054727,321.950215 17,322 C13.0703515,320.121092 11.5456138,317.399067 11.4699262,312.595761" id="Fill-104" fill="#E11A1A"></path>
            <path d="M19.7152279,287.867656 C19.7387434,287.810712 19.7597168,287.754422 19.7806901,287.696169 C19.8601345,287.467737 19.9173345,287.234724 19.9452989,286.997129 C20.0692322,286.223473 19.9885167,285.416436 19.642139,284.701688 C19.2735169,283.940468 18.6805437,283.526804 18.0062195,283.366444 C17.4570996,283.069287 16.8024776,282.929872 16.0734956,283.034597 C13.5484341,283.397207 11.7765057,287.336176 14.0428962,289.162973 C14.5564249,289.576637 15.1277892,289.735688 15.6953401,289.720634 C16.9880598,290.360111 18.3748416,289.850886 19.246188,288.710692 C19.2874991,288.657021 19.3059302,288.590913 19.3440636,288.535932 C19.4985035,288.323864 19.619259,288.100014 19.7152279,287.867656" id="Fill-106" fill="#FFDFCC"></path>
            <path d="M80.4603541,314.932209 C80.0864512,313.572224 78.336458,313.812075 77.8673218,314.932209 C77.1291033,316.694022 76.6471841,318.958588 77.3240441,320.808865 C77.4940581,321.648031 78.5026371,322.317122 79.4805368,321.841781 C81.7169233,320.754665 80.9646436,316.767535 80.4603541,314.932209" id="Fill-108" fill="#FFDFCC"></path>
            <path d="M51.0084614,93 C49.7785529,93.7184417 48.6668278,94.5556118 47.7280378,95.5034151 L46.78858,94.6500548 C46.7778967,93.9606206 46.2277097,93.3244793 45.5085938,93.1902353 C44.7387325,93.039801 44.0530018,93.5234843 44.0062626,94.2500211 C43.9328153,94.9691374 44.5143844,95.7017455 45.278904,95.8508306 C45.4378173,95.8771397 45.5713578,95.8953537 45.7162493,95.8636479 L46.6236574,96.7217303 C45.7896966,97.740366 45.1046336,98.8473733 44.5891671,100.059617 L46.1702872,101 C47.33209,98.3110718 49.353894,96.1267392 52,94.5798971 L51.0084614,93 Z" id="Fill-110" fill="#C7EBFF"></path>
            <path d="M64.2655327,91.0113923 C63.86392,90.9304469 63.4536919,90.8769082 63.0514166,90.7959627 L63.3112056,89.2605488 C63.8433755,88.9845695 64.2761363,88.4568307 64.3728945,87.8105419 C64.5332744,86.8309109 63.8678964,86.0418522 62.8784448,86.0016981 C61.8889932,85.9602694 61.0069034,86.6817673 60.8617662,87.6308048 C60.7835644,88.2305659 61.0228089,88.8067445 61.4767769,89.1171416 L61.2309052,90.6264235 C59.4726901,90.5473901 57.7356823,90.7105557 56,91.0999862 L56.3591981,92.8202361 C58.7980339,92.3046073 61.3057933,92.2982336 63.7492682,92.837445 C64.9176562,93.0955781 66.0191086,93.4894701 67.0854366,94 L68,92.2198377 C66.8249848,91.6774395 65.551886,91.2708002 64.2655327,91.0113923" id="Fill-112" fill="#C7EBFF"></path>
            <path d="M77.1440441,101.148178 C77.9471608,101.221978 78.7663667,100.535512 78.9580957,99.581203 C79.1491544,98.6288028 78.6705022,97.7972817 77.8559889,97.7438404 C77.1065027,97.6700405 76.3362347,98.2954309 76.080149,99.1072296 L74.7889948,99.8547715 C74.1782775,98.4360324 73.4033167,97.1636206 72.4473531,96 L71,97.4588201 C73.0533777,100.034182 74.2064335,103.336726 74.4055367,107 L76.2396998,106.644997 C76.1706505,104.913245 75.8978053,103.278195 75.4546833,101.718219 L76.6808106,100.991671 C76.8189092,101.096009 76.9764488,101.137999 77.1440441,101.148178" id="Fill-114" fill="#C7EBFF"></path>
            <path d="M56.6200659,115.205648 C55.8302918,114.851039 55.0482354,114.467321 54.2732535,114.055817 C52.5187716,113.123646 50.8421095,112.082976 49.4059812,110.999965 C48.6599405,110.463421 47.7994212,109.754866 47,109 C48.0984806,114.310526 51.318032,119.6409 55.7756251,122.438734 C61.286679,125.898812 67.4704558,123.429123 71,116.796755 C69.2371573,117.390194 67.2685103,117.623072 65.0921296,117.496048 C62.4385401,117.322713 59.5251226,116.511612 56.6200659,115.205648" id="Fill-116" fill="#C7EBFF"></path>
            <path d="M64.2237691,110.169814 C62.6858903,109.529967 61.8724981,107.490694 62.3813411,105.65541 C62.8977506,103.790986 64.6159629,102.728587 66.1853685,103.251867 C67.7787345,103.78275 68.5908657,105.823924 68.0277965,107.766905 C67.4798602,109.748529 65.7616479,110.809661 64.2237691,110.169814 M53.9863767,108.231269 C51.9138029,107.308876 50.7094779,104.74062 51.2624586,102.510025 C51.821114,100.25409 54.0324059,99.0333134 56.1831663,99.746014 C58.3572565,100.46695 59.5609509,103.037107 58.9064539,105.467891 C58.2759173,107.908178 56.05832,109.153662 53.9863767,108.231269 M62.6209451,94.4466894 C55.2606912,92.5974689 47.9483581,96.6582784 46.344273,103.514775 C46.1380875,104.395356 46.0182856,105.341822 46,106.285754 C47.1009169,107.935419 50.925752,110.817263 56.255678,113.038355 C62.0919248,115.417191 67.5050816,115.656658 71.2618188,113.624353 C71.420714,113.094104 71.532319,112.544849 71.643924,111.995595 C73.2366594,103.630707 69.3550761,96.1394324 62.6209451,94.4466894" id="Fill-118" fill="#C7EBFF"></path>
            <path d="M136,123.879491 C138.660949,120.564015 141.096133,126.988899 140.997079,137 C138.990915,130.448939 136,123.879491 136,123.879491" id="Fill-140" fill="#B3B3FC"></path>
            <path d="M60.3035572,133 C55.0705129,133 49.2484487,131.096158 43.1595744,125.81472 C42.9679042,125.649252 42.9456169,125.356948 43.1105425,125.163795 C43.2748313,124.966136 43.5632919,124.944889 43.7555989,125.113575 C55.9957518,135.729248 67.1158116,132.222882 74.2891194,127.410161 C74.499893,127.26916 74.7838962,127.326462 74.9239874,127.540861 C75.0634419,127.752685 75.005495,128.040483 74.7953582,128.182128 C70.9307505,130.772949 65.9626061,133 60.3035572,133" id="Fill-142" fill="#0061D1"></path>
            <path d="M141.102306,138.62287 C139.254451,128.394269 132.676188,113.673406 120.215126,105.851647 C120.002396,105.717187 119.936311,105.434179 120.067222,105.218402 C120.199391,105.003906 120.478206,104.934754 120.689677,105.067934 C133.40375,113.047844 140.111665,128.04211 141.992247,138.456395 C142.038192,138.706108 141.875183,138.945576 141.629096,138.992317 C141.601403,138.996799 141.57434,139 141.546647,139 C141.333288,139 141.142586,138.84505 141.102306,138.62287 Z" id="Fill-87" fill="#8080F1"></path>
            <path d="M55.8063686,141 C50.693673,141 46.5191794,138.433817 44.0478641,133.639882 C43.9359626,133.421836 44.0270011,133.155882 44.250804,133.047166 C44.4752392,132.937222 44.7489868,133.026283 44.8615205,133.243714 C47.7222782,138.795588 53.038546,141.145569 59.4422179,139.689883 C59.6837227,139.631533 59.9309175,139.780787 59.9878165,140.018487 C60.0453478,140.256188 59.893617,140.493888 59.6489511,140.549167 C58.3213066,140.85136 57.0360203,141 55.8063686,141" id="Fill-144" fill="#0061D1"></path>
            <path d="M65.4287786,253 C65.4020046,253 65.3752306,252.996629 65.3484566,252.991909 C65.1170105,252.941342 64.9635064,252.688507 65.0075347,252.424211 C65.7399517,248.039718 67.1458829,245.349555 67.2053806,245.236959 C67.327351,245.006374 67.5897359,244.930186 67.7926232,245.070425 C67.9943205,245.207967 68.0603629,245.50665 67.9395825,245.735887 C67.9253031,245.760833 66.5503107,248.401777 65.8488325,252.606252 C65.809564,252.83886 65.6298809,253 65.4287786,253" id="Fill-146" fill="#0061D1"></path>
            <path d="M69.4681213,253 C69.4551249,253 69.4414788,252.998652 69.4284825,252.998652 C69.1711553,252.976401 68.9807591,252.740416 69.0015532,252.474764 C69.1997472,250.015796 71.0250809,245.488923 71.1017592,245.297437 C71.2024807,245.051338 71.4760533,244.931997 71.7138861,245.039876 C71.951069,245.143036 72.0634872,245.427567 71.9634155,245.675014 C71.9452206,245.720188 70.1179375,250.250433 69.9333897,252.555673 C69.9132454,252.808515 69.7085533,253 69.4681213,253" id="Fill-148" fill="#0061D1"></path>
            <path d="M73.4327395,253 C73.4098753,253 73.3870111,252.998779 73.3641469,252.993896 C73.1282846,252.956052 72.9676334,252.73204 73.0055399,252.492769 C73.0368277,252.288289 73.7913465,247.476613 74.154767,246.307113 C74.2275715,246.078828 74.4712558,245.944543 74.6974911,246.022062 C74.9255314,246.094088 75.0518863,246.341294 74.9796835,246.572631 C74.6349154,247.679261 73.8671594,252.580665 73.8587358,252.630106 C73.8256428,252.846183 73.6415258,253 73.4327395,253" id="Fill-150" fill="#0061D1"></path>
            <path d="M78.6049456,254 C78.5822819,254 78.5587787,253.997994 78.5352755,253.996657 C78.2045522,253.965899 77.9661628,253.727859 78.0039358,253.465078 C78.0123298,253.406906 78.8324228,247.643124 78.7929711,246.495717 C78.7828983,246.230931 79.0447909,246.010276 79.3780324,246.001583 C79.6667857,245.978849 79.989115,246.204185 79.9983484,246.468971 C80.0411578,247.683912 79.2378527,253.333354 79.2034373,253.572063 C79.1690219,253.818127 78.9079688,254 78.6049456,254" id="Fill-152" fill="#0061D1"></path>
            <path d="M83.5899989,255 C83.5621488,255 83.5342987,254.998035 83.5064486,254.994761 C83.1837147,254.957432 82.9600946,254.719705 83.0059654,254.461677 C83.4253555,252.114537 83.9807199,248.341038 83.7898646,247.562369 C83.7267922,247.30696 83.9348491,247.060065 84.2543064,247.010948 C84.5794976,246.953972 84.8833917,247.125554 84.9456449,247.382273 C85.2347948,248.565011 84.2813374,253.98033 84.1723943,254.59593 C84.1306191,254.829728 83.8783297,255 83.5899989,255" id="Fill-154" fill="#0061D1"></path>
            <path d="M88.4459134,255 C88.4105651,255 88.3733563,254.99543 88.3367677,254.985638 C88.0973912,254.921664 87.9535173,254.665765 88.0136715,254.415089 C88.0248341,254.36874 89.1082296,249.853959 89.1082296,248.470018 C89.1082296,248.210855 89.3079167,248 89.5541148,248 C89.800933,248 90,248.210855 90,248.470018 C90,249.970158 88.9240462,254.455563 88.8781554,254.646181 C88.8273034,254.858342 88.6456005,255 88.4459134,255" id="Fill-156" fill="#0061D1"></path>
            <path d="M43.4891572,241 C43.4442689,241 43.3980204,240.993535 43.3524521,240.981252 C43.0933245,240.909493 42.943697,240.651546 43.019871,240.40459 C44.6610125,235.061416 49.4633751,235 49.5116639,235 C49.7809934,235 49.9993136,235.206874 49.9999937,235.463528 C50.0013539,235.720181 49.7830338,235.928348 49.5137043,235.929641 C49.3450333,235.929641 45.3887463,236.009158 43.9584434,240.665769 C43.8958719,240.868118 43.7006761,241 43.4891572,241" id="Fill-158" fill="#0061D1"></path>
            <path d="M48.4716562,242 C48.4349251,242 48.3962261,241.994898 48.3581831,241.98597 C48.1056563,241.925384 47.9515165,241.676665 48.0138283,241.431134 C49.0475487,237.380836 54.1938495,236.069639 54.4129248,236.015431 C54.6641398,235.949106 54.9199462,236.103439 54.9855376,236.347057 C55.0491613,236.592587 54.8969893,236.841944 54.6444624,236.904443 C54.5959248,236.915284 49.8254626,238.137198 48.9294842,241.651155 C48.8763551,241.859697 48.6835164,242 48.4716562,242" id="Fill-160" fill="#0061D1"></path>
            <path d="M52.431436,245 C52.3024229,245 52.1740099,244.938612 52.0894013,244.823353 C51.9441866,244.625407 51.9795902,244.344149 52.1686094,244.192558 C53.9045852,242.80005 57.4827476,240 57.4827476,240 L58,240.719118 C58,240.719118 54.4278382,243.516662 52.6942626,244.906039 C52.6156546,244.968053 52.5232453,245 52.431436,245" id="Fill-162" fill="#0061D1"></path>
            <path d="M56.4661082,250 C56.4478137,250 56.4295192,250 56.4118345,249.998688 C56.1697371,249.982285 55.9861821,249.759213 56.0008178,249.498744 C56.0160632,249.240242 56.216693,249.034885 56.4654984,249.057848 L56.480134,249.057848 C57.0887314,249.057848 59.2279698,246.798259 60.1542819,244.295914 C60.243925,244.056439 60.5000482,243.93703 60.7238511,244.033476 C60.9488736,244.12861 61.0580309,244.404169 60.9689976,244.646924 C60.0884217,247.022643 57.7723364,250 56.4661082,250" id="Fill-164" fill="#0061D1"></path>
            <path d="M66.5675989,314 C64.848371,314 63.3498462,313.664596 62.579893,312.821026 C62.1786144,312.382977 61.7767088,311.597235 62.1453835,310.353204 C62.2262662,310.080688 62.4808273,309.932503 62.7178325,310.030088 C62.9535837,310.122613 63.0789832,310.418261 62.9987275,310.689331 C62.7661113,311.472904 63.0024895,311.851679 63.1999938,312.068535 C64.5718649,313.568456 70.0975964,313.021256 73.3818108,311.501818 C73.610665,311.39845 73.874631,311.522781 73.9674267,311.790237 C74.0602224,312.056247 73.9479898,312.359122 73.7166276,312.465382 C71.8419042,313.334252 68.9865563,314 66.5675989,314" id="Fill-166" fill="#FF3738"></path>
            <path d="M62.501449,322 L62.4965673,322 C62.2197037,321.996642 61.9972364,321.778399 62.0000259,321.511807 C62.0035129,321.223727 62.1046344,314.415217 64.0677859,311.238943 C64.209356,311.007269 64.5148126,310.928702 64.7547146,311.071735 C64.9932218,311.207381 65.070632,311.50352 64.9297593,311.731836 C63.1025988,314.687182 63.0028721,321.454728 63.0028721,321.52188 C62.9993851,321.787129 62.7762205,322 62.501449,322" id="Fill-168" fill="#FF3738"></path>
            <path d="M2.36634088,281 C2.05010905,281 1.73698362,280.996982 1.43504124,280.990947 C1.18839284,280.984912 0.99393201,280.786347 1.00014482,280.546138 C1.00573634,280.308344 1.19336309,280.163494 1.45740735,280.122454 C3.65860455,280.185825 6.49723567,280.007781 6.52581458,280.006574 C6.76997786,279.959498 6.98431967,280.172548 6.99923041,280.412153 C7.01351986,280.651758 6.82713568,280.858772 6.58048727,280.87205 C6.55563605,280.873257 4.39979232,281 2.36634088,281" id="Fill-170" fill="#FF3738"></path>
            <path d="M7.50869076,284 C7.49911134,284 7.49021617,284 7.48063675,283.99835 C7.4443718,283.99725 3.92119818,283.839389 1.47913046,283.790986 C1.2074855,283.785486 0.99331705,283.603973 1.00015949,283.386159 C1.00631769,283.167244 1.25811957,282.997283 1.50307901,283.000033 C3.96156859,283.048986 7.50047983,283.207397 7.53537629,283.209597 C7.80702125,283.222248 8.01366301,283.40816 7.99929388,283.625975 C7.98492476,283.836639 7.76733509,284 7.50869076,284" id="Fill-172" fill="#FF3738"></path>
            <path d="M7.54659749,287 C7.53648776,287 7.52637803,287 7.5162683,286.99835 C7.48846654,286.99725 4.69565361,286.837734 2.44307938,286.790979 C2.1922317,286.785479 1.99382825,286.60396 2.00014683,286.386139 C2.00583355,286.168867 2.18591312,286.039604 2.46519441,286 C4.73735624,286.047855 7.54722935,286.209021 7.57566296,286.209571 C7.82587878,286.223872 8.01543622,286.411991 7.99900791,286.630363 C7.98321146,286.839384 7.78354429,287 7.54659749,287" id="Fill-174" fill="#FF3738"></path>
            <path d="M7.57726935,291 C7.55433524,291 7.53081308,290.99835 7.50729092,290.994501 C7.49788206,290.992852 6.47760843,290.837785 4.4123629,290.791045 C4.17831742,290.785546 3.99425653,290.604085 4.00013707,290.385782 C4.00542955,290.168578 4.14597445,289.991516 4.43235673,290.000314 C6.56758069,290.048154 7.60373178,290.20762 7.64724777,290.214218 C7.87776492,290.249961 8.03242312,290.454517 7.99419961,290.668421 C7.96009248,290.862529 7.78073602,291 7.57726935,291" id="Fill-176" fill="#FF3738"></path>
            <path d="M7.57734681,294 C7.55441598,294 7.53207312,293.99835 7.50855432,293.994499 C7.49797086,293.992849 6.4784308,293.839384 4.41230405,293.790979 C4.17829197,293.785479 3.99425735,293.60396 4.00013705,293.386139 C4.00542878,293.167217 4.20475063,293.034103 4.43229503,293 C6.56780224,293.048955 7.60380546,293.207371 7.64672728,293.213971 C7.87721154,293.250275 8.03243563,293.453245 7.99421758,293.668867 C7.96011531,293.862486 7.78078445,294 7.57734681,294" id="Fill-178" fill="#FF3738"></path>
            <path d="M8.57728463,298 C8.55435043,298 8.53200428,297.99835 8.50848202,297.994499 C8.497897,297.992849 7.478795,297.839384 5.41236429,297.790979 C5.17890584,297.785479 4.99425608,297.60396 5.00013665,297.386139 C5.00542916,297.167217 5.2200698,297.016502 5.43294627,297 C7.5681796,297.048955 8.60374718,297.207371 8.6466753,297.213971 C8.87719347,297.249725 9.0324404,297.453245 8.99421672,297.668867 C8.96010944,297.862486 8.7807522,298 8.57728463,298" id="Fill-180" fill="#FF3738"></path>
            <path d="M8.57729992,301 C8.55436562,301 8.53143132,300.99835 8.50790896,300.994499 C8.49791196,300.992849 7.47880572,300.839384 5.41177837,300.790979 C5.17831895,300.785479 4.99425648,300.60396 5.00013707,300.386139 C5.00484154,300.167217 5.18713983,300 5.43236043,300 C7.56819069,300.048955 8.60376258,300.207371 8.64610282,300.213971 C8.87662195,300.249725 9.03245758,300.453245 8.99423375,300.668317 C8.95953827,300.862486 8.78076833,301 8.57729992,301" id="Fill-182" fill="#FF3738"></path>
            <path d="M9.57875156,305 C9.56701002,305 9.55409432,304.998352 9.54235278,304.998352 C9.52239215,304.997253 7.49991136,304.839033 5.41109085,304.791238 C5.17802122,304.785744 4.99426607,304.604451 5.00013684,304.386349 C5.00483346,304.1666 5.18741446,303.983109 5.43222563,304.001238 C7.54746461,304.050132 9.59225433,304.209451 9.61338911,304.21055 C9.84587166,304.228679 10.0178853,304.42041 9.99851172,304.637413 C9.97972526,304.843428 9.79597011,305 9.57875156,305" id="Fill-184" fill="#FF3738"></path>
            <path d="M10.5787021,308 C10.566372,308 10.554042,307.99835 10.542299,307.99835 C10.5223361,307.9967 8.49961778,307.837734 6.41172627,307.790979 C6.17804212,307.785479 5.9942654,307.60396 6.00013686,307.385589 C6.00542117,307.171067 6.19330792,307 6.42170775,307 L6.43227638,307 C8.54658946,307.047855 10.5933807,307.208471 10.6133437,307.209571 C10.8458536,307.229373 11.0178874,307.419692 10.9985115,307.636964 C10.9797229,307.843234 10.7959461,308 10.5787021,308" id="Fill-186" fill="#FF3738"></path>
            <path d="M11.5128317,311 C11.4924707,311 11.471431,310.9989 11.45107,310.99725 C11.4347812,310.994499 9.87716552,310.838284 7.47592617,310.791529 C7.20648241,310.785479 6.99337072,310.60451 7.00015771,310.386139 C7.00626601,310.170517 7.20173151,310.030253 7.49968065,310 C9.95521598,310.048405 11.5087595,310.206271 11.5732359,310.211221 C11.8406436,310.239274 12.0300008,310.437294 11.9960658,310.654015 C11.9648456,310.854235 11.7544487,311 11.5128317,311" id="Fill-188" fill="#FF3738"></path>
            <path d="M11.5648009,315 C11.5381717,315 11.5121476,314.99725 11.4855184,314.992849 C11.4764403,314.991199 10.5419962,314.837734 8.42436672,314.790979 C8.18409839,314.785479 7.99466769,314.60396 8.00011458,314.385589 C8.00556147,314.167217 8.18712444,314.020352 8.44554907,314 C10.6479079,314.048955 11.6047448,314.209021 11.6446886,314.215072 C11.8807205,314.255226 12.0362594,314.461496 11.9926843,314.677118 C11.9533457,314.866887 11.7699671,315 11.5648009,315" id="Fill-190" fill="#FF3738"></path>
            <path d="M12.4938655,319 C12.4213002,319 12.3487349,318.987899 12.2789877,318.963146 C12.2719425,318.963146 11.7407365,318.833333 9.49332633,318.790979 C9.21363296,318.785479 8.99311904,318.60396 9.00016422,318.385589 C9.00720939,318.167217 9.25660851,318.00275 9.51798443,318 C11.9168658,318.046755 12.5481133,318.187569 12.7087433,318.245325 C12.961665,318.338834 13.0708652,318.574257 12.9518017,318.771727 C12.8665551,318.914741 12.6840852,319 12.4938655,319" id="Fill-192" fill="#FF3738"></path>
            <path d="M100.521141,125 C100.449225,125 100.376643,124.984193 100.30739,124.95258 C90.8150951,120.456556 87.1773254,111.006747 87.0281655,110.607157 C86.9389359,110.37069 87.0687849,110.110198 87.3178287,110.026107 C87.5642088,109.942648 87.8398882,110.065939 87.9291178,110.301141 C87.965076,110.395981 91.5961868,119.809118 100.734893,124.137593 C100.971285,124.249503 101.067839,124.523273 100.94931,124.747095 C100.865408,124.907057 100.696937,125 100.521141,125" id="Fill-194" fill="#0061D1"></path>
            <path d="M92.5543128,119 C92.5474927,119 92.5406726,119 92.5332325,118.998768 C92.3776101,118.992606 88.7090126,118.808996 87.198669,117.812079 C86.9940658,117.676527 86.9382649,117.401112 87.074667,117.197785 C87.2104492,116.993226 87.4857335,116.939622 87.6928167,117.073324 C88.7772137,117.790514 91.5852377,118.067777 92.5753932,118.11522 C92.821537,118.126311 93.01126,118.333951 92.9994798,118.578559 C92.9876996,118.815774 92.7911565,119 92.5543128,119" id="Fill-196" fill="#0061D1"></path>
            <path d="M48.3908461,199 C44.04647,194.731199 41.7387437,194.164916 38.8427097,193.415208 C35.9466757,192.666166 41.4442648,187 41.4442648,187 L50.3605392,190.049525 L52,195.517592 L49.7546798,198.041521 L48.3908461,199 Z" id="Fill-198" fill="#0074EF"></path>
            <path d="M128,315.902599 L128,316.0974 C128,316.569369 128.46,317.020896 129,316.999252 C129.542,316.977607 130,316.603038 130,316.0974 L130,315.902599 C130,315.431231 129.54,314.979103 129,315.000747 C128.458,315.022993 128,315.396961 128,315.902599" id="Fill-200" fill="#CCDAE1"></path>
        </g>
    </g>
</svg>